<svg xmlns="http://www.w3.org/2000/svg" viewBox="0 0 64 64">
  <defs>
    <linearGradient id="flagGradient" x1="0%" y1="0%" x2="100%" y2="100%">
      <stop offset="0%" style="stop-color:#FF9933;stop-opacity:1" />
      <stop offset="50%" style="stop-color:#FFFFFF;stop-opacity:1" />
      <stop offset="100%" style="stop-color:#138808;stop-opacity:1" />
    </linearGradient>
  </defs>
  <circle cx="32" cy="32" r="32" fill="url(#flagGradient)" />
  <circle cx="32" cy="32" r="14" fill="none" stroke="#000080" stroke-width="2.5" />
  <circle cx="32" cy="32" r="3" fill="#000080" />
  <g stroke="#000080" stroke-width="1.5" stroke-linecap="round">
    <line x1="32" y1="32" x2="32" y2="18" transform="rotate(0 32 32)" />
    <line x1="32" y1="32" x2="32" y2="18" transform="rotate(15 32 32)" />
    <line x1="32" y1="32" x2="32" y2="18" transform="rotate(30 32 32)" />
    <line x1="32" y1="32" x2="32" y2="18" transform="rotate(45 32 32)" />
    <line x1="32" y1="32" x2="32" y2="18" transform="rotate(60 32 32)" />
    <line x1="32" y1="32" x2="32" y2="18" transform="rotate(75 32 32)" />
    <line x1="32" y1="32" x2="32" y2="18" transform="rotate(90 32 32)" />
    <line x1="32" y1="32" x2="32" y2="18" transform="rotate(105 32 32)" />
    <line x1="32" y1="32" x2="32" y2="18" transform="rotate(120 32 32)" />
    <line x1="32" y1="32" x2="32" y2="18" transform="rotate(135 32 32)" />
    <line x1="32" y1="32" x2="32" y2="18" transform="rotate(150 32 32)" />
    <line x1="32" y1="32" x2="32" y2="18" transform="rotate(165 32 32)" />
    <line x1="32" y1="32" x2="32" y2="18" transform="rotate(180 32 32)" />
    <line x1="32" y1="32" x2="32" y2="18" transform="rotate(195 32 32)" />
    <line x1="32" y1="32" x2="32" y2="18" transform="rotate(210 32 32)" />
    <line x1="32" y1="32" x2="32" y2="18" transform="rotate(225 32 32)" />
    <line x1="32" y1="32" x2="32" y2="18" transform="rotate(240 32 32)" />
    <line x1="32" y1="32" x2="32" y2="18" transform="rotate(255 32 32)" />
    <line x1="32" y1="32" x2="32" y2="18" transform="rotate(270 32 32)" />
    <line x1="32" y1="32" x2="32" y2="18" transform="rotate(285 32 32)" />
    <line x1="32" y1="32" x2="32" y2="18" transform="rotate(300 32 32)" />
    <line x1="32" y1="32" x2="32" y2="18" transform="rotate(315 32 32)" />
    <line x1="32" y1="32" x2="32" y2="18" transform="rotate(330 32 32)" />
    <line x1="32" y1="32" x2="32" y2="18" transform="rotate(345 32 32)" />
  </g>
</svg>